{
  "source": "C:\\Users\\Peter\\Desktop\\stuff\\MIUN\\quantitative_research\\video_compression\\videos\\BVI-HD\\RockWave_1920x1080_30fps.mp4",
  "output": "C:\\Users\\Peter\\Desktop\\stuff\\MIUN\\quantitative_research\\video_compression\\compressed_videos\\BVI-HD\\av1\\2.5\\RockWave_1920x1080_30fps_av1.mkv",
  "codec": "av1",
  "ok": "Input #0, mov,mp4,m4a,3gp,3g2,mj2, from 'C:\\Users\\Peter\\Desktop\\stuff\\MIUN\\quantitative_research\\video_compression\\videos\\BVI-HD\\RockWave_1920x1080_30fps.mp4':\n  Metadata:\n    major_brand     : isom\n    minor_version   : 512\n    compatible_brands: isomiso2avc1mp41\n    encoder         : Lavf54.28.101\n  Duration: 00:00:05.00, start: 0.000000, bitrate: 303557 kb/s\n  Stream #0:0[0x1](und): Video: h264 (High 4:4:4 Predictive) (avc1 / 0x31637661), yuv420p(progressive), 1920x1080, 303553 kb/s, 30 fps, 30 tbr, 30 tbn (default)\n    Metadata:\n      handler_name    : VideoHandler\n      vendor_id       : [0][0][0][0]\n[out#0/matroska @ 0000021f24330c00] Codec AVOption b:a (set bitrate (in bits/s)) has not been used for any stream. The most likely reason is either wrong type (e.g. a video option with no video streams) or that it is a private option of some decoder which was not actually used for any stream.\nStream mapping:\n  Stream #0:0 -> #0:0 (h264 (native) -> av1 (libsvtav1))\nPress [q] to stop, [?] for help\nSvt[info]: -------------------------------------------\nSvt[info]: SVT [version]:\tSVT-AV1 Encoder Lib v3.1.0-19-g6ecfe8ec\nSvt[info]: SVT [build]  :\tGCC 15.2.0\t 64 bit\nSvt[info]: LIB Build date: Aug 17 2025 11:37:13\nSvt[info]: -------------------------------------------\nSvt[info]: Level of Parallelism: 5\nSvt[info]: Number of PPCS 93\nSvt[info]: [asm level on system : up to avx2]\nSvt[info]: [asm level selected : up to avx2]\nSvt[info]: -------------------------------------------\nSvt[info]: SVT [config]: main profile\ttier (auto)\tlevel (auto)\nSvt[info]: SVT [config]: width / height / fps numerator / fps denominator \t\t: 1920 / 1080 / 30 / 1\nSvt[info]: SVT [config]: bit-depth / color format \t\t\t\t\t: 8 / YUV420\nSvt[info]: SVT [config]: preset / tune / pred struct \t\t\t\t\t: 4 / PSNR / random access\nSvt[info]: SVT [config]: gop size / mini-gop size / key-frame type \t\t\t: 161 / 16 / key frame\nSvt[info]: SVT [config]: BRC mode / target bitrate (kbps)\t\t\t\t: VBR / 2500 \nSvt[info]: SVT [config]: AQ mode / Variance Boost \t\t\t\t\t: 2 / 0\nSvt[info]: SVT [config]: sharpness / luminance-based QP bias \t\t\t\t: 0 / 0\nSvt[info]: SVT [config]: QP scale compress strength \t\t\t\t\t: 0\nSvt[info]: -------------------------------------------\nOutput #0, matroska, to 'C:\\Users\\Peter\\Desktop\\stuff\\MIUN\\quantitative_research\\video_compression\\compressed_videos\\BVI-HD\\av1\\2.5\\RockWave_1920x1080_30fps_av1.mkv':\n  Metadata:\n    major_brand     : isom\n    minor_version   : 512\n    compatible_brands: isomiso2avc1mp41\n    encoder         : Lavf62.3.100\n  Stream #0:0(und): Video: av1 (AV01 / 0x31305641), yuv420p(tv, progressive), 1920x1080, q=2-31, 2500 kb/s, 30 fps, 1k tbn (default)\n    Metadata:\n      encoder         : Lavc62.11.100 libsvtav1\n      handler_name    : VideoHandler\n      vendor_id       : [0][0][0][0]\n    Side data:\n      cpb: bitrate max/min/avg: 0/0/2500000 buffer size: 2500000 vbv_delay: N/A\nframe=    0 fps=0.0 q=0.0 size=       0KiB time=N/A bitrate=N/A speed=N/A elapsed=0:00:01.02    \nframe=    0 fps=0.0 q=0.0 size=       0KiB time=N/A bitrate=N/A speed=N/A elapsed=0:00:01.55    \nframe=    0 fps=0.0 q=0.0 size=       0KiB time=N/A bitrate=N/A speed=N/A elapsed=0:00:02.07    \nframe=    0 fps=0.0 q=0.0 size=       0KiB time=N/A bitrate=N/A speed=N/A elapsed=0:00:02.59    \nframe=    0 fps=0.0 q=0.0 size=       0KiB time=N/A bitrate=N/A speed=N/A elapsed=0:00:03.11    \nframe=    0 fps=0.0 q=0.0 size=       0KiB time=N/A bitrate=N/A speed=N/A elapsed=0:00:03.64    \nframe=    0 fps=0.0 q=0.0 size=       0KiB time=N/A bitrate=N/A speed=N/A elapsed=0:00:04.14    \nframe=    1 fps=0.2 q=47.0 size=       1KiB time=00:00:00.00 bitrate=N/A speed=   0x elapsed=0:00:04.66    \nframe=    1 fps=0.2 q=47.0 size=       1KiB time=00:00:00.00 bitrate=N/A speed=   0x elapsed=0:00:05.19    \nframe=    3 fps=0.5 q=58.0 size=       1KiB time=00:00:00.06 bitrate=  85.6kbits/s speed=0.0117x elapsed=0:00:05.71    \nframe=    6 fps=1.0 q=58.0 size=       1KiB time=00:00:00.16 bitrate=  34.2kbits/s speed=0.0267x elapsed=0:00:06.23    \nframe=    8 fps=1.2 q=58.0 size=       1KiB time=00:00:00.23 bitrate=  24.4kbits/s speed=0.0346x elapsed=0:00:06.75    \nframe=   11 fps=1.5 q=57.0 size=       1KiB time=00:00:00.33 bitrate=  17.1kbits/s speed=0.0459x elapsed=0:00:07.26    \nframe=   16 fps=2.1 q=58.0 size=       1KiB time=00:00:00.50 bitrate=  11.4kbits/s speed=0.0642x elapsed=0:00:07.78    \nframe=   19 fps=2.3 q=57.0 size=       1KiB time=00:00:00.60 bitrate=   9.5kbits/s speed=0.0724x elapsed=0:00:08.29    \nframe=   22 fps=2.5 q=60.0 size=       1KiB time=00:00:00.70 bitrate=   8.1kbits/s speed=0.0794x elapsed=0:00:08.81    \nframe=   23 fps=2.5 q=58.0 size=       1KiB time=00:00:00.73 bitrate=   7.8kbits/s speed=0.0787x elapsed=0:00:09.32    \nframe=   27 fps=2.7 q=58.0 size=       1KiB time=00:00:00.86 bitrate=   6.6kbits/s speed=0.0881x elapsed=0:00:09.84    \nframe=   33 fps=3.2 q=51.0 size=       1KiB time=00:00:01.06 bitrate=   5.3kbits/s speed=0.103x elapsed=0:00:10.36    \nframe=   36 fps=3.3 q=60.0 size=       1KiB time=00:00:01.16 bitrate=   4.9kbits/s speed=0.107x elapsed=0:00:10.87    \nframe=   39 fps=3.4 q=59.0 size=       1KiB time=00:00:01.26 bitrate=   4.5kbits/s speed=0.111x elapsed=0:00:11.38    \nframe=   42 fps=3.5 q=60.0 size=       1KiB time=00:00:01.36 bitrate=   4.2kbits/s speed=0.115x elapsed=0:00:11.91    \nframe=   46 fps=3.7 q=60.0 size=       1KiB time=00:00:01.50 bitrate=   3.8kbits/s speed=0.121x elapsed=0:00:12.43    \nframe=   51 fps=3.9 q=59.0 size=       1KiB time=00:00:01.66 bitrate=   3.4kbits/s speed=0.129x elapsed=0:00:12.95    \nframe=   57 fps=4.2 q=56.0 size=       1KiB time=00:00:01.86 bitrate=   3.1kbits/s speed=0.139x elapsed=0:00:13.47    \nframe=   57 fps=4.1 q=56.0 size=       1KiB time=00:00:01.86 bitrate=   3.1kbits/s speed=0.134x elapsed=0:00:13.97    \nframe=   61 fps=4.2 q=57.0 size=       1KiB time=00:00:02.00 bitrate=   2.9kbits/s speed=0.138x elapsed=0:00:14.49    \nframe=   65 fps=4.3 q=51.0 size=       1KiB time=00:00:02.13 bitrate=   2.7kbits/s speed=0.142x elapsed=0:00:15.01    \nframe=   73 fps=4.7 q=57.0 size=       1KiB time=00:00:02.40 bitrate=   2.4kbits/s speed=0.155x elapsed=0:00:15.52    \nframe=   75 fps=4.7 q=61.0 size=       1KiB time=00:00:02.46 bitrate=   2.3kbits/s speed=0.154x elapsed=0:00:16.04    \nframe=   79 fps=4.8 q=60.0 size=       1KiB time=00:00:02.60 bitrate=   2.2kbits/s speed=0.157x elapsed=0:00:16.55    \nframe=   85 fps=5.0 q=60.0 size=       1KiB time=00:00:02.80 bitrate=   2.0kbits/s speed=0.164x elapsed=0:00:17.07    \nframe=   89 fps=5.1 q=59.0 size=       1KiB time=00:00:02.93 bitrate=   1.9kbits/s speed=0.167x elapsed=0:00:17.59    \nframe=   93 fps=5.1 q=58.0 size=       1KiB time=00:00:03.06 bitrate=   1.9kbits/s speed=0.169x elapsed=0:00:18.10    \nframe=   97 fps=5.2 q=56.0 size=       1KiB time=00:00:03.20 bitrate=   1.8kbits/s speed=0.172x elapsed=0:00:18.62    \nframe=  103 fps=5.4 q=59.0 size=       1KiB time=00:00:03.40 bitrate=   1.7kbits/s speed=0.178x elapsed=0:00:19.14    \nframe=  105 fps=5.3 q=58.0 size=       1KiB time=00:00:03.46 bitrate=   1.6kbits/s speed=0.176x elapsed=0:00:19.64    \nframe=  109 fps=5.4 q=57.0 size=       1KiB time=00:00:03.60 bitrate=   1.6kbits/s speed=0.178x elapsed=0:00:20.17    \nframe=  113 fps=5.5 q=54.0 size=       1KiB time=00:00:03.73 bitrate=   1.5kbits/s speed=0.18x elapsed=0:00:20.68    \nframe=  119 fps=5.6 q=58.0 size=       1KiB time=00:00:03.93 bitrate=   1.5kbits/s speed=0.186x elapsed=0:00:21.20    \nframe=  121 fps=5.6 q=57.0 size=       1KiB time=00:00:04.00 bitrate=   1.4kbits/s speed=0.184x elapsed=0:00:21.71    \nframe=  125 fps=5.6 q=58.0 size=       1KiB time=00:00:04.13 bitrate=   1.4kbits/s speed=0.186x elapsed=0:00:22.22    \nframe=  131 fps=5.8 q=60.0 size=       1KiB time=00:00:04.33 bitrate=   1.3kbits/s speed=0.191x elapsed=0:00:22.74    \nframe=  137 fps=5.9 q=58.0 size=       1KiB time=00:00:04.53 bitrate=   1.3kbits/s speed=0.195x elapsed=0:00:23.26    \nframe=  139 fps=5.8 q=60.0 size=       1KiB time=00:00:04.60 bitrate=   1.2kbits/s speed=0.193x elapsed=0:00:23.77    \n[out#0/matroska @ 0000021f24330c00] video:1578KiB audio:0KiB subtitle:0KiB other streams:0KiB global headers:0KiB muxing overhead: 0.090493%\nframe=  150 fps=6.2 q=60.0 Lsize=    1579KiB time=00:00:04.96 bitrate=2604.7kbits/s speed=0.205x elapsed=0:00:24.19    \n",
  "seconds": 24.6330783367157,
  "probe_out": {}
}